<svg width="253" height="75" viewBox="0 0 253 75" fill="none" xmlns="http://www.w3.org/2000/svg">
<path d="M35 33H13C7.47715 33 3 37.4772 3 43V65C3 70.5228 7.47715 75 13 75H35C40.5228 75 45 70.5228 45 65V43C45 37.4772 40.5229 33 35 33Z" fill="black"/>
<path d="M13 33.5H35C40.2467 33.5 44.5 37.7533 44.5 43V65C44.5 70.2467 40.2467 74.5 35 74.5H13C7.75329 74.5 3.5 70.2467 3.5 65V43C3.5 37.7533 7.75329 33.5 13 33.5Z" stroke="black" stroke-opacity="0.3"/>
<path d="M87 33H65C59.4772 33 55 37.4772 55 43V65C55 70.5228 59.4772 75 65 75H87C92.5228 75 97 70.5228 97 65V43C97 37.4772 92.5229 33 87 33Z" fill="#F37C34"/>
<path d="M65 33.5H87C92.2467 33.5 96.5 37.7533 96.5 43V65C96.5 70.2467 92.2467 74.5 87 74.5H65C59.7533 74.5 55.5 70.2467 55.5 65V43C55.5 37.7533 59.7533 33.5 65 33.5Z" stroke="black" stroke-opacity="0.3"/>
<path d="M139 33H117C111.477 33 107 37.4772 107 43V65C107 70.5228 111.477 75 117 75H139C144.523 75 149 70.5228 149 65V43C149 37.4772 144.523 33 139 33Z" fill="#777777"/>
<path d="M117 33.5H139C144.247 33.5 148.5 37.7533 148.5 43V65C148.5 70.2467 144.247 74.5 139 74.5H117C111.753 74.5 107.5 70.2467 107.5 65V43C107.5 37.7533 111.753 33.5 117 33.5Z" stroke="black" stroke-opacity="0.3"/>
<path d="M191 33H169C163.477 33 159 37.4772 159 43V65C159 70.5228 163.477 75 169 75H191C196.523 75 201 70.5228 201 65V43C201 37.4772 196.523 33 191 33Z" fill="#DDDDDD"/>
<path d="M169 33.5H191C196.247 33.5 200.5 37.7533 200.5 43V65C200.5 70.2467 196.247 74.5 191 74.5H169C163.753 74.5 159.5 70.2467 159.5 65V43C159.5 37.7533 163.753 33.5 169 33.5Z" stroke="black" stroke-opacity="0.3"/>
<path d="M243 33H221C215.477 33 211 37.4772 211 43V65C211 70.5228 215.477 75 221 75H243C248.523 75 253 70.5228 253 65V43C253 37.4772 248.523 33 243 33Z" fill="white"/>
<path d="M221 33.5H243C248.247 33.5 252.5 37.7533 252.5 43V65C252.5 70.2467 248.247 74.5 243 74.5H221C215.753 74.5 211.5 70.2467 211.5 65V43C211.5 37.7533 215.753 33.5 221 33.5Z" stroke="black" stroke-opacity="0.3"/>
<path d="M9.42614 7H8.19318C8.12027 6.64536 7.99266 6.33381 7.81037 6.06534C7.63139 5.79688 7.41264 5.5715 7.15412 5.3892C6.89891 5.2036 6.61553 5.06439 6.30398 4.97159C5.99242 4.87879 5.66761 4.83239 5.32955 4.83239C4.71307 4.83239 4.15459 4.98816 3.65412 5.29972C3.15696 5.61127 2.76089 6.07031 2.46591 6.67685C2.17424 7.28338 2.02841 8.02746 2.02841 8.90909C2.02841 9.79072 2.17424 10.5348 2.46591 11.1413C2.76089 11.7479 3.15696 12.2069 3.65412 12.5185C4.15459 12.83 4.71307 12.9858 5.32955 12.9858C5.66761 12.9858 5.99242 12.9394 6.30398 12.8466C6.61553 12.7538 6.89891 12.6162 7.15412 12.4339C7.41264 12.2483 7.63139 12.0213 7.81037 11.7528C7.99266 11.4811 8.12027 11.1695 8.19318 10.8182H9.42614C9.33333 11.3385 9.1643 11.8042 8.91903 12.2152C8.67377 12.6262 8.36885 12.9759 8.00426 13.2642C7.63968 13.5492 7.23035 13.7663 6.77628 13.9155C6.32552 14.0646 5.84328 14.1392 5.32955 14.1392C4.46117 14.1392 3.68892 13.9271 3.01278 13.5028C2.33665 13.0786 1.80469 12.4754 1.4169 11.6932C1.02912 10.911 0.835227 9.98295 0.835227 8.90909C0.835227 7.83523 1.02912 6.9072 1.4169 6.125C1.80469 5.3428 2.33665 4.73958 3.01278 4.31534C3.68892 3.8911 4.46117 3.67898 5.32955 3.67898C5.84328 3.67898 6.32552 3.75355 6.77628 3.9027C7.23035 4.05185 7.63968 4.2706 8.00426 4.55895C8.36885 4.84399 8.67377 5.192 8.91903 5.60298C9.1643 6.01065 9.33333 6.47633 9.42614 7ZM14.3617 14.1591C13.6723 14.1591 13.0674 13.995 12.5471 13.6669C12.03 13.3388 11.6257 12.8797 11.334 12.2898C11.0456 11.6998 10.9015 11.0104 10.9015 10.2216C10.9015 9.42614 11.0456 8.73177 11.334 8.13849C11.6257 7.54522 12.03 7.08452 12.5471 6.75639C13.0674 6.42827 13.6723 6.2642 14.3617 6.2642C15.0511 6.2642 15.6543 6.42827 16.1713 6.75639C16.6917 7.08452 17.0961 7.54522 17.3844 8.13849C17.6761 8.73177 17.8219 9.42614 17.8219 10.2216C17.8219 11.0104 17.6761 11.6998 17.3844 12.2898C17.0961 12.8797 16.6917 13.3388 16.1713 13.6669C15.6543 13.995 15.0511 14.1591 14.3617 14.1591ZM14.3617 13.1051C14.8854 13.1051 15.3162 12.9709 15.6543 12.7024C15.9924 12.4339 16.2426 12.081 16.405 11.6435C16.5674 11.206 16.6486 10.732 16.6486 10.2216C16.6486 9.71117 16.5674 9.23556 16.405 8.79474C16.2426 8.35393 15.9924 7.99763 15.6543 7.72585C15.3162 7.45407 14.8854 7.31818 14.3617 7.31818C13.838 7.31818 13.4071 7.45407 13.0691 7.72585C12.731 7.99763 12.4808 8.35393 12.3184 8.79474C12.156 9.23556 12.0748 9.71117 12.0748 10.2216C12.0748 10.732 12.156 11.206 12.3184 11.6435C12.4808 12.081 12.731 12.4339 13.0691 12.7024C13.4071 12.9709 13.838 13.1051 14.3617 13.1051ZM20.7862 3.81818V14H19.6129V3.81818H20.7862ZM26.0375 14.1591C25.3481 14.1591 24.7432 13.995 24.2228 13.6669C23.7058 13.3388 23.3014 12.8797 23.0098 12.2898C22.7214 11.6998 22.5772 11.0104 22.5772 10.2216C22.5772 9.42614 22.7214 8.73177 23.0098 8.13849C23.3014 7.54522 23.7058 7.08452 24.2228 6.75639C24.7432 6.42827 25.3481 6.2642 26.0375 6.2642C26.7269 6.2642 27.3301 6.42827 27.8471 6.75639C28.3675 7.08452 28.7718 7.54522 29.0602 8.13849C29.3519 8.73177 29.4977 9.42614 29.4977 10.2216C29.4977 11.0104 29.3519 11.6998 29.0602 12.2898C28.7718 12.8797 28.3675 13.3388 27.8471 13.6669C27.3301 13.995 26.7269 14.1591 26.0375 14.1591ZM26.0375 13.1051C26.5611 13.1051 26.992 12.9709 27.3301 12.7024C27.6681 12.4339 27.9184 12.081 28.0808 11.6435C28.2432 11.206 28.3244 10.732 28.3244 10.2216C28.3244 9.71117 28.2432 9.23556 28.0808 8.79474C27.9184 8.35393 27.6681 7.99763 27.3301 7.72585C26.992 7.45407 26.5611 7.31818 26.0375 7.31818C25.5138 7.31818 25.0829 7.45407 24.7449 7.72585C24.4068 7.99763 24.1565 8.35393 23.9941 8.79474C23.8317 9.23556 23.7505 9.71117 23.7505 10.2216C23.7505 10.732 23.8317 11.206 23.9941 11.6435C24.1565 12.081 24.4068 12.4339 24.7449 12.7024C25.0829 12.9709 25.5138 13.1051 26.0375 13.1051ZM31.2887 14V6.36364H32.4222V7.51705H32.5018C32.641 7.1392 32.8929 6.83262 33.2575 6.5973C33.622 6.36198 34.033 6.24432 34.4904 6.24432C34.5766 6.24432 34.6843 6.24597 34.8136 6.24929C34.9428 6.2526 35.0406 6.25758 35.1069 6.2642V7.45739C35.0671 7.44744 34.976 7.43253 34.8335 7.41264C34.6942 7.38944 34.5468 7.37784 34.391 7.37784C34.0198 7.37784 33.6883 7.45573 33.3967 7.61151C33.1083 7.76397 32.8796 7.97609 32.7106 8.24787C32.5449 8.51634 32.462 8.82292 32.462 9.16761V14H31.2887ZM41.9068 8.07386L40.8528 8.37216C40.7865 8.1965 40.6887 8.0258 40.5595 7.86009C40.4335 7.69105 40.2612 7.55185 40.0424 7.44247C39.8237 7.3331 39.5436 7.27841 39.2022 7.27841C38.7349 7.27841 38.3455 7.38613 38.0339 7.60156C37.7257 7.81368 37.5716 8.08381 37.5716 8.41193C37.5716 8.7036 37.6776 8.93395 37.8897 9.10298C38.1019 9.27202 38.4333 9.41288 38.8841 9.52557L40.0176 9.80398C40.7003 9.9697 41.2091 10.2232 41.5439 10.5646C41.8786 10.9027 42.046 11.3385 42.046 11.8722C42.046 12.3097 41.92 12.7008 41.6681 13.0455C41.4196 13.3902 41.0716 13.6619 40.6241 13.8608C40.1767 14.0597 39.6563 14.1591 39.063 14.1591C38.2842 14.1591 37.6395 13.9901 37.1291 13.652C36.6187 13.3139 36.2955 12.8201 36.1596 12.1705L37.2733 11.892C37.3793 12.303 37.5798 12.6113 37.8748 12.8168C38.1731 13.0223 38.5626 13.125 39.0431 13.125C39.59 13.125 40.0242 13.009 40.3457 12.777C40.6705 12.5417 40.8329 12.2599 40.8329 11.9318C40.8329 11.6667 40.7401 11.4446 40.5545 11.2656C40.3689 11.0833 40.0839 10.9474 39.6994 10.858L38.4267 10.5597C37.7273 10.3939 37.2136 10.1371 36.8855 9.78906C36.5607 9.43774 36.3983 8.99858 36.3983 8.47159C36.3983 8.04072 36.5192 7.65956 36.7612 7.32812C37.0065 6.99669 37.3395 6.73651 37.7605 6.54758C38.1847 6.35866 38.6653 6.2642 39.2022 6.2642C39.9579 6.2642 40.5512 6.42992 40.9821 6.76136C41.4163 7.0928 41.7245 7.5303 41.9068 8.07386Z" fill="black"/>
</svg>
